<?xml version="1.0" encoding="UTF-8" standalone="no"?>
<!-- Created with Inkscape (http://www.inkscape.org/) -->

<svg
   xmlns:dc="http://purl.org/dc/elements/1.1/"
   xmlns:cc="http://creativecommons.org/ns#"
   xmlns:rdf="http://www.w3.org/1999/02/22-rdf-syntax-ns#"
   xmlns:svg="http://www.w3.org/2000/svg"
   xmlns="http://www.w3.org/2000/svg"
   xmlns:sodipodi="http://sodipodi.sourceforge.net/DTD/sodipodi-0.dtd"
   xmlns:inkscape="http://www.inkscape.org/namespaces/inkscape"
   width="27.191507mm"
   height="8.5991697mm"
   viewBox="0 0 27.191508 8.5991687"
   version="1.1"
   id="svg4785"
   inkscape:version="0.92.5 (2060ec1f9f, 2020-04-08)"
   sodipodi:docname="logo-4-raster.svg">
  <defs
     id="defs4779" />
  <sodipodi:namedview
     id="base"
     pagecolor="#ffffff"
     bordercolor="#666666"
     borderopacity="1.0"
     inkscape:pageopacity="0.0"
     inkscape:pageshadow="2"
     inkscape:zoom="2.8"
     inkscape:cx="-50.418022"
     inkscape:cy="-38.283098"
     inkscape:document-units="mm"
     inkscape:current-layer="layer1"
     showgrid="false"
     inkscape:window-width="1848"
     inkscape:window-height="1016"
     inkscape:window-x="72"
     inkscape:window-y="27"
     inkscape:window-maximized="1"
     fit-margin-top="0"
     fit-margin-left="0"
     fit-margin-right="0"
     fit-margin-bottom="0" />
  <metadata
     id="metadata4782">
    <rdf:RDF>
      <cc:Work
         rdf:about="">
        <dc:format>image/svg+xml</dc:format>
        <dc:type
           rdf:resource="http://purl.org/dc/dcmitype/StillImage" />
        <dc:title></dc:title>
      </cc:Work>
    </rdf:RDF>
  </metadata>
  <g
     inkscape:label="Layer 1"
     inkscape:groupmode="layer"
     id="layer1"
     transform="translate(-98.038479,-120.24777)">
    <g
       id="g9367">
      <path
         d="m 119.36328,126.31055 a 0.38689014,0.38689011 0 0 0 -0.38672,0.38672 0.38689014,0.38689011 0 0 0 0.38672,0.38867 0.38689014,0.38689011 0 0 0 0.38672,-0.38867 0.38689014,0.38689011 0 0 0 -0.38672,-0.38672 z"
         id="path4817"
         style="opacity:0.97000002;fill:#ff00a5;fill-opacity:1;stroke:#ff00af;stroke-width:0;stroke-miterlimit:4;stroke-dasharray:none;stroke-opacity:0.94117647"
         inkscape:original="M 119.36328 126.31055 A 0.38689014 0.38689011 0 0 0 118.97656 126.69727 A 0.38689014 0.38689011 0 0 0 119.36328 127.08594 A 0.38689014 0.38689011 0 0 0 119.75 126.69727 A 0.38689014 0.38689011 0 0 0 119.36328 126.31055 z "
         inkscape:radius="0"
         sodipodi:type="inkscape:offset" />
      <path
         d="m 104.73633,123.38086 c -0.62038,0 -1.09766,0.44112 -1.09766,1.00781 0,0.48318 0.25584,0.75781 0.91797,0.97852 0.29826,0.10141 0.3286,0.11233 0.41211,0.16601 0.0954,0.0597 0.14844,0.15044 0.14844,0.25782 0,0.18492 -0.14864,0.32226 -0.35742,0.32226 -0.23265,0 -0.36386,-0.12003 -0.44141,-0.40039 h -0.79883 c 0.0358,0.32212 0.0895,0.49498 0.2207,0.66797 0.21475,0.28633 0.59057,0.45898 0.99024,0.45898 0.66213,0 1.17969,-0.49464 1.17969,-1.12695 0,-0.50107 -0.24987,-0.76398 -0.91797,-0.9668 -0.32809,-0.1014 -0.32871,-0.10092 -0.40625,-0.13671 -0.0954,-0.0477 -0.1543,-0.12516 -0.1543,-0.22657 0,-0.15509 0.1317,-0.27539 0.30469,-0.27539 0.16702,0 0.27475,0.0907 0.31055,0.26367 h 0.77539 c -0.0119,-0.28036 -0.0792,-0.44799 -0.24024,-0.62695 -0.20878,-0.23264 -0.51762,-0.36328 -0.8457,-0.36328 z m 3.38672,0 c -0.97829,0 -1.68164,0.73407 -1.68164,1.74219 0,0.99618 0.6977,1.71679 1.66406,1.71679 0.46528,0 0.7815,-0.14198 1.09765,-0.50586 v 0.42969 h 0.72657 v -3.30469 h -0.72657 v 0.44141 c -0.27439,-0.36387 -0.60286,-0.51953 -1.08007,-0.51953 z m 3.7207,0 c -0.62038,0 -1.09766,0.44112 -1.09766,1.00781 0,0.48318 0.25779,0.75781 0.91993,0.97852 0.29825,0.10141 0.32664,0.11233 0.41015,0.16601 0.0954,0.0597 0.15039,0.15044 0.15039,0.25782 0,0.18492 -0.14864,0.32226 -0.35742,0.32226 -0.23264,0 -0.36386,-0.12003 -0.44141,-0.40039 h -0.80078 c 0.0358,0.32212 0.0895,0.49498 0.22071,0.66797 0.21474,0.28633 0.59056,0.45898 0.99023,0.45898 0.66213,0 1.18164,-0.49464 1.18164,-1.12695 0,-0.50107 -0.24987,-0.76398 -0.91797,-0.9668 -0.32808,-0.1014 -0.3287,-0.10092 -0.40625,-0.13671 -0.0954,-0.0477 -0.15429,-0.12516 -0.15429,-0.22657 0,-0.15509 0.12974,-0.27539 0.30273,-0.27539 0.16702,0 0.27476,0.0907 0.31055,0.26367 h 0.77539 c -0.0119,-0.28036 -0.0772,-0.44799 -0.23828,-0.62695 -0.20878,-0.23264 -0.51958,-0.36328 -0.84766,-0.36328 z m 2.88672,0 c -0.62038,0 -1.09766,0.44112 -1.09766,1.00781 0,0.48318 0.25584,0.75781 0.91797,0.97852 0.29826,0.10141 0.3286,0.11233 0.41211,0.16601 0.0954,0.0597 0.15039,0.15044 0.15039,0.25782 0,0.18492 -0.15059,0.32226 -0.35937,0.32226 -0.23265,0 -0.36386,-0.12003 -0.44141,-0.40039 h -0.79883 c 0.0358,0.32212 0.0895,0.49498 0.22071,0.66797 0.21474,0.28633 0.59056,0.45898 0.99023,0.45898 0.66213,0 1.18164,-0.49464 1.18164,-1.12695 0,-0.50107 -0.25182,-0.76398 -0.91992,-0.9668 -0.32809,-0.1014 -0.32675,-0.10092 -0.4043,-0.13671 -0.0954,-0.0477 -0.15625,-0.12516 -0.15625,-0.22657 0,-0.15509 0.1317,-0.27539 0.30469,-0.27539 0.16702,0 0.27475,0.0907 0.31055,0.26367 h 0.77539 c -0.0119,-0.28036 -0.0772,-0.44799 -0.23829,-0.62695 -0.20878,-0.23264 -0.51957,-0.36328 -0.84765,-0.36328 z m 1.45508,0.0781 1.21093,2.99414 -0.62109,1.41407 h 0.85352 l 1.9082,-4.40821 h -0.91797 l -0.79297,2.14063 -0.73437,-2.14063 z m -7.97852,0.64844 c 0.56669,0 0.97266,0.42486 0.97266,1.02735 0,0.2386 -0.0971,0.51266 -0.24024,0.67968 -0.16106,0.19685 -0.41648,0.29883 -0.7207,0.29883 -0.57862,0 -0.97852,-0.39403 -0.97852,-0.97266 0,-0.60248 0.40011,-1.0332 0.9668,-1.0332 z"
         id="text4793"
         style="font-style:normal;font-variant:normal;font-weight:bold;font-stretch:normal;font-size:5.96517324px;line-height:1.25;font-family:'URW Gothic';-inkscape-font-specification:'URW Gothic Bold';letter-spacing:0px;word-spacing:0px;fill:#ff00a5;fill-opacity:1;stroke:none;stroke-width:0.14912933"
         inkscape:original="M 104.73633 123.38086 C 104.11595 123.38086 103.63867 123.82198 103.63867 124.38867 C 103.63867 124.87185 103.89451 125.14648 104.55664 125.36719 C 104.8549 125.4686 104.88524 125.47952 104.96875 125.5332 C 105.06419 125.59285 105.11719 125.68364 105.11719 125.79102 C 105.11719 125.97594 104.96855 126.11328 104.75977 126.11328 C 104.52712 126.11328 104.39591 125.99325 104.31836 125.71289 L 103.51953 125.71289 C 103.55532 126.03501 103.609 126.20787 103.74023 126.38086 C 103.95498 126.66719 104.3308 126.83984 104.73047 126.83984 C 105.3926 126.83984 105.91016 126.3452 105.91016 125.71289 C 105.91016 125.21182 105.66029 124.94891 104.99219 124.74609 C 104.6641 124.64469 104.66348 124.64517 104.58594 124.60938 C 104.49049 124.56165 104.43164 124.48422 104.43164 124.38281 C 104.43164 124.22772 104.56334 124.10742 104.73633 124.10742 C 104.90335 124.10742 105.01108 124.1981 105.04688 124.37109 L 105.82227 124.37109 C 105.81034 124.09073 105.74309 123.9231 105.58203 123.74414 C 105.37325 123.5115 105.06441 123.38086 104.73633 123.38086 z M 108.12305 123.38086 C 107.14476 123.38086 106.44141 124.11493 106.44141 125.12305 C 106.44141 126.11923 107.13911 126.83984 108.10547 126.83984 C 108.57075 126.83984 108.88697 126.69786 109.20312 126.33398 L 109.20312 126.76367 L 109.92969 126.76367 L 109.92969 123.45898 L 109.20312 123.45898 L 109.20312 123.90039 C 108.92873 123.53652 108.60026 123.38086 108.12305 123.38086 z M 111.84375 123.38086 C 111.22337 123.38086 110.74609 123.82198 110.74609 124.38867 C 110.74609 124.87185 111.00388 125.14648 111.66602 125.36719 C 111.96427 125.4686 111.99266 125.47952 112.07617 125.5332 C 112.17161 125.59285 112.22656 125.68364 112.22656 125.79102 C 112.22656 125.97594 112.07792 126.11328 111.86914 126.11328 C 111.6365 126.11328 111.50528 125.99325 111.42773 125.71289 L 110.62695 125.71289 C 110.66274 126.03501 110.71642 126.20787 110.84766 126.38086 C 111.0624 126.66719 111.43822 126.83984 111.83789 126.83984 C 112.50002 126.83984 113.01953 126.3452 113.01953 125.71289 C 113.01953 125.21182 112.76966 124.94891 112.10156 124.74609 C 111.77348 124.64469 111.77286 124.64517 111.69531 124.60938 C 111.59987 124.56165 111.54102 124.48422 111.54102 124.38281 C 111.54102 124.22772 111.67076 124.10742 111.84375 124.10742 C 112.01077 124.10742 112.11851 124.1981 112.1543 124.37109 L 112.92969 124.37109 C 112.91776 124.09073 112.85247 123.9231 112.69141 123.74414 C 112.48263 123.5115 112.17183 123.38086 111.84375 123.38086 z M 114.73047 123.38086 C 114.11009 123.38086 113.63281 123.82198 113.63281 124.38867 C 113.63281 124.87185 113.88865 125.14648 114.55078 125.36719 C 114.84904 125.4686 114.87938 125.47952 114.96289 125.5332 C 115.05833 125.59285 115.11328 125.68364 115.11328 125.79102 C 115.11328 125.97594 114.96269 126.11328 114.75391 126.11328 C 114.52126 126.11328 114.39005 125.99325 114.3125 125.71289 L 113.51367 125.71289 C 113.54946 126.03501 113.60314 126.20787 113.73438 126.38086 C 113.94912 126.66719 114.32494 126.83984 114.72461 126.83984 C 115.38674 126.83984 115.90625 126.3452 115.90625 125.71289 C 115.90625 125.21182 115.65443 124.94891 114.98633 124.74609 C 114.65824 124.64469 114.65958 124.64517 114.58203 124.60938 C 114.48659 124.56165 114.42578 124.48422 114.42578 124.38281 C 114.42578 124.22772 114.55748 124.10742 114.73047 124.10742 C 114.89749 124.10742 115.00522 124.1981 115.04102 124.37109 L 115.81641 124.37109 C 115.80448 124.09073 115.73918 123.9231 115.57812 123.74414 C 115.36934 123.5115 115.05855 123.38086 114.73047 123.38086 z M 116.18555 123.45898 L 117.39648 126.45312 L 116.77539 127.86719 L 117.62891 127.86719 L 119.53711 123.45898 L 118.61914 123.45898 L 117.82617 125.59961 L 117.0918 123.45898 L 116.18555 123.45898 z M 108.20703 124.10742 C 108.77372 124.10742 109.17969 124.53228 109.17969 125.13477 C 109.17969 125.37337 109.08262 125.64743 108.93945 125.81445 C 108.77839 126.0113 108.52297 126.11328 108.21875 126.11328 C 107.64013 126.11328 107.24023 125.71925 107.24023 125.14062 C 107.24023 124.53814 107.64034 124.10742 108.20703 124.10742 z "
         inkscape:radius="0"
         sodipodi:type="inkscape:offset" />
      <path
         d="m 103.9375,121.22852 v 1.66796 h 0.17773 v -0.87695 h 0.88672 v 0.87695 h 0.17774 v -1.66796 h -0.17774 v 0.61914 h -0.88672 v -0.61914 z m 2.14844,0 v 1.66796 h 1.02539 v -0.17187 h -0.84766 v -0.70508 h 0.78321 v -0.17187 h -0.78321 v -0.44727 h 0.85352 v -0.17187 z m 1.75586,0 0.61523,0.95312 v 0.71484 h 0.17774 v -0.71484 l 0.61523,-0.95312 h -0.20508 L 108.54688,122 l -0.5,-0.77148 z"
         id="text4797"
         style="font-style:normal;font-variant:normal;font-weight:bold;font-stretch:normal;font-size:2.28758287px;line-height:1.25;font-family:Sawasdee;-inkscape-font-specification:'Sawasdee Bold';letter-spacing:0.59372509px;word-spacing:0px;fill:#ff00a5;fill-opacity:1;stroke:none;stroke-width:0.05718956"
         inkscape:original="M 103.9375 121.22852 L 103.9375 122.89648 L 104.11523 122.89648 L 104.11523 122.01953 L 105.00195 122.01953 L 105.00195 122.89648 L 105.17969 122.89648 L 105.17969 121.22852 L 105.00195 121.22852 L 105.00195 121.84766 L 104.11523 121.84766 L 104.11523 121.22852 L 103.9375 121.22852 z M 106.08594 121.22852 L 106.08594 122.89648 L 107.11133 122.89648 L 107.11133 122.72461 L 106.26367 122.72461 L 106.26367 122.01953 L 107.04688 122.01953 L 107.04688 121.84766 L 106.26367 121.84766 L 106.26367 121.40039 L 107.11719 121.40039 L 107.11719 121.22852 L 106.08594 121.22852 z M 107.8418 121.22852 L 108.45703 122.18164 L 108.45703 122.89648 L 108.63477 122.89648 L 108.63477 122.18164 L 109.25 121.22852 L 109.04492 121.22852 L 108.54688 122 L 108.04688 121.22852 L 107.8418 121.22852 z "
         inkscape:radius="0"
         sodipodi:type="inkscape:offset" />
    </g>
  </g>
</svg>
