<?xml version="1.0" encoding="UTF-8" standalone="no"?>
<!-- Created with Inkscape (http://www.inkscape.org/) -->

<svg
   xmlns:dc="http://purl.org/dc/elements/1.1/"
   xmlns:cc="http://creativecommons.org/ns#"
   xmlns:rdf="http://www.w3.org/1999/02/22-rdf-syntax-ns#"
   xmlns:svg="http://www.w3.org/2000/svg"
   xmlns="http://www.w3.org/2000/svg"
   xmlns:sodipodi="http://sodipodi.sourceforge.net/DTD/sodipodi-0.dtd"
   xmlns:inkscape="http://www.inkscape.org/namespaces/inkscape"
   width="27.191507mm"
   height="5.5991735mm"
   viewBox="0 0 27.191508 5.5991728"
   version="1.1"
   id="svg4785"
   inkscape:version="0.92.5 (2060ec1f9f, 2020-04-08)"
   sodipodi:docname="logo-2-raster.svg">
  <defs
     id="defs4779" />
  <sodipodi:namedview
     id="base"
     pagecolor="#ffffff"
     bordercolor="#666666"
     borderopacity="1.0"
     inkscape:pageopacity="0.0"
     inkscape:pageshadow="2"
     inkscape:zoom="2.8"
     inkscape:cx="118.51055"
     inkscape:cy="-36.854527"
     inkscape:document-units="mm"
     inkscape:current-layer="layer1"
     showgrid="false"
     inkscape:window-width="1848"
     inkscape:window-height="1016"
     inkscape:window-x="72"
     inkscape:window-y="27"
     inkscape:window-maximized="1"
     fit-margin-top="0"
     fit-margin-left="0"
     fit-margin-right="0"
     fit-margin-bottom="0" />
  <metadata
     id="metadata4782">
    <rdf:RDF>
      <cc:Work
         rdf:about="">
        <dc:format>image/svg+xml</dc:format>
        <dc:type
           rdf:resource="http://purl.org/dc/dcmitype/StillImage" />
        <dc:title></dc:title>
      </cc:Work>
    </rdf:RDF>
  </metadata>
  <g
     inkscape:label="Layer 1"
     inkscape:groupmode="layer"
     id="layer1"
     transform="translate(-98.038479,-123.24777)">
    <g
       id="g9510">
      <path
         d="m 110.94141,124.99414 c -0.18568,0 -0.34394,0.0641 -0.47657,0.19141 -0.13262,0.12732 -0.19922,0.27304 -0.19922,0.4375 0,0.0729 0.0176,0.13765 0.0547,0.19336 0.0385,0.0557 0.0875,0.0996 0.14453,0.13281 0.057,0.0318 0.11728,0.0639 0.1836,0.0957 0.0676,0.0318 0.13047,0.0614 0.1875,0.0879 0.057,0.0265 0.10349,0.0611 0.14062,0.10352 0.0385,0.0424 0.0586,0.0895 0.0586,0.14258 0,0.0928 -0.0446,0.18395 -0.13477,0.27148 -0.0902,0.0875 -0.20324,0.13086 -0.33984,0.13086 -0.0875,0 -0.15977,-0.0264 -0.2168,-0.0781 -0.057,-0.0517 -0.0859,-0.1321 -0.0859,-0.24218 0,-0.0305 0.001,-0.0682 0.004,-0.11328 l -0.31836,0.0371 -0.0137,0.13281 c 0,0.18302 0.0527,0.3231 0.16015,0.41992 0.10876,0.0968 0.24382,0.14453 0.4043,0.14453 0.22812,0 0.42978,-0.0785 0.60352,-0.23633 0.17374,-0.15782 0.25976,-0.33809 0.25976,-0.54101 0,-0.0796 -0.0201,-0.15056 -0.0586,-0.21289 -0.0371,-0.0623 -0.083,-0.11263 -0.13867,-0.14844 -0.0557,-0.0371 -0.11728,-0.0723 -0.1836,-0.10547 -0.0663,-0.0345 -0.12593,-0.064 -0.18164,-0.0879 -0.0557,-0.0252 -0.10411,-0.0534 -0.14258,-0.0879 -0.0371,-0.0345 -0.0547,-0.0722 -0.0547,-0.11328 0,-0.0597 0.027,-0.1175 0.0801,-0.17188 0.0531,-0.0557 0.12278,-0.084 0.20899,-0.084 0.0597,0 0.1099,0.0189 0.15234,0.0547 0.0438,0.0345 0.0714,0.0853 0.082,0.15429 l 0.008,0.0684 0.31836,-0.10351 -0.01,-0.0625 c -0.0106,-0.0756 -0.0339,-0.14157 -0.0684,-0.19727 -0.0345,-0.0557 -0.0759,-0.0978 -0.125,-0.12695 -0.0478,-0.0292 -0.0961,-0.0492 -0.14648,-0.0625 -0.0504,-0.0146 -0.1032,-0.0234 -0.15625,-0.0234 z m 2.10351,0 c -0.29576,0 -0.5702,0.14767 -0.82617,0.43945 l 0.2168,0.15821 0.0234,-0.0254 c 0.0159,-0.0173 0.0272,-0.0311 0.0352,-0.0391 0.009,-0.008 0.025,-0.0205 0.0449,-0.0391 0.0199,-0.0199 0.0368,-0.0343 0.0527,-0.0449 0.0172,-0.0119 0.0386,-0.0277 0.0625,-0.0449 0.0252,-0.0172 0.0478,-0.0304 0.0703,-0.041 0.0239,-0.0106 0.0503,-0.0206 0.0781,-0.0312 0.0279,-0.0106 0.0574,-0.0201 0.0879,-0.0254 0.0305,-0.005 0.0619,-0.008 0.0938,-0.008 0.11671,0 0.21401,0.0414 0.29492,0.125 0.0822,0.0822 0.125,0.19661 0.125,0.33984 0,0.0332 -0.002,0.057 -0.006,0.0742 -0.069,0 -0.12553,6.3e-4 -0.16797,0.002 -0.0424,0 -0.10527,0.002 -0.1875,0.006 -0.0822,0.004 -0.15196,0.01 -0.20899,0.0176 -0.0557,0.007 -0.12417,0.0192 -0.20507,0.0352 -0.0796,0.0159 -0.1461,0.0335 -0.20313,0.0547 -0.057,0.0212 -0.11861,0.0495 -0.18359,0.084 -0.0637,0.0332 -0.11835,0.0715 -0.16211,0.11523 -0.0424,0.0424 -0.0814,0.0946 -0.11719,0.1543 -0.0345,0.0584 -0.0577,0.12174 -0.0723,0.19336 -0.008,0.0239 -0.0137,0.0597 -0.0137,0.10742 0,0.13263 0.049,0.24763 0.14453,0.3418 0.0955,0.0928 0.24122,0.13867 0.4375,0.13867 0.24669,0 0.49481,-0.10365 0.74414,-0.31055 -0.0133,0.0597 -0.0195,0.10552 -0.0195,0.13868 0,0.0252 0.006,0.0724 0.0195,0.13867 h 0.34571 c -0.0146,-0.0464 -0.0215,-0.10674 -0.0215,-0.17969 0,-0.0968 0.0119,-0.19796 0.0371,-0.30273 l 0.13477,-0.66602 c 0.0146,-0.0796 0.0234,-0.15118 0.0234,-0.21484 0,-0.21221 -0.0653,-0.38057 -0.19532,-0.50391 -0.12864,-0.12467 -0.29011,-0.1875 -0.48242,-0.1875 z m 2.19141,0 c -0.18568,0 -0.34394,0.0641 -0.47656,0.19141 -0.13263,0.12732 -0.19922,0.27304 -0.19922,0.4375 0,0.0729 0.0175,0.13765 0.0547,0.19336 0.0385,0.0557 0.0875,0.0996 0.14454,0.13281 0.057,0.0318 0.11923,0.0639 0.18554,0.0957 0.0676,0.0318 0.12852,0.0614 0.18555,0.0879 0.057,0.0265 0.10544,0.0611 0.14258,0.10352 0.0385,0.0424 0.0566,0.0895 0.0566,0.14258 0,0.0928 -0.0446,0.18395 -0.13477,0.27148 -0.0902,0.0875 -0.20324,0.13086 -0.33984,0.13086 -0.0875,0 -0.15977,-0.0264 -0.2168,-0.0781 -0.057,-0.0517 -0.0859,-0.1321 -0.0859,-0.24218 0,-0.0305 0.001,-0.0682 0.004,-0.11328 l -0.31836,0.0371 -0.0137,0.13281 c 0,0.18302 0.0527,0.3231 0.16016,0.41992 0.10875,0.0968 0.24381,0.14453 0.40429,0.14453 0.22812,0 0.42978,-0.0785 0.60352,-0.23633 0.17374,-0.15782 0.25976,-0.33809 0.25976,-0.54101 0,-0.0796 -0.0182,-0.15056 -0.0566,-0.21289 -0.0371,-0.0623 -0.0849,-0.11263 -0.14062,-0.14844 -0.0557,-0.0371 -0.11533,-0.0723 -0.18164,-0.10547 -0.0663,-0.0345 -0.12789,-0.064 -0.1836,-0.0879 -0.0557,-0.0252 -0.10216,-0.0534 -0.14062,-0.0879 -0.0371,-0.0345 -0.0566,-0.0722 -0.0566,-0.11328 0,-0.0597 0.027,-0.1175 0.0801,-0.17188 0.053,-0.0557 0.12277,-0.084 0.20898,-0.084 0.0597,0 0.1099,0.0189 0.15234,0.0547 0.0438,0.0345 0.0714,0.0853 0.082,0.15429 l 0.008,0.0684 0.31836,-0.10351 -0.01,-0.0625 c -0.0106,-0.0756 -0.0339,-0.14157 -0.0684,-0.19727 -0.0345,-0.0557 -0.0759,-0.0978 -0.125,-0.12695 -0.0477,-0.0292 -0.0961,-0.0492 -0.14648,-0.0625 -0.0504,-0.0146 -0.1032,-0.0234 -0.15625,-0.0234 z m 1.96094,0 c -0.18568,0 -0.34394,0.0641 -0.47657,0.19141 -0.13262,0.12732 -0.19922,0.27304 -0.19922,0.4375 0,0.0729 0.0176,0.13765 0.0547,0.19336 0.0385,0.0557 0.0875,0.0996 0.14453,0.13281 0.057,0.0318 0.11728,0.0639 0.1836,0.0957 0.0676,0.0318 0.13047,0.0614 0.1875,0.0879 0.057,0.0265 0.10349,0.0611 0.14062,0.10352 0.0385,0.0424 0.0586,0.0895 0.0586,0.14258 0,0.0928 -0.0446,0.18395 -0.13477,0.27148 -0.0902,0.0875 -0.20324,0.13086 -0.33984,0.13086 -0.0875,0 -0.15977,-0.0264 -0.2168,-0.0781 -0.057,-0.0517 -0.0859,-0.1321 -0.0859,-0.24218 0,-0.0305 0.001,-0.0682 0.004,-0.11328 l -0.31836,0.0371 -0.0137,0.13281 c 0,0.18302 0.0527,0.3231 0.16015,0.41992 0.10876,0.0968 0.24382,0.14453 0.4043,0.14453 0.22812,0 0.42977,-0.0785 0.60352,-0.23633 0.17374,-0.15782 0.25976,-0.33809 0.25976,-0.54101 0,-0.0796 -0.0201,-0.15056 -0.0586,-0.21289 -0.0371,-0.0623 -0.083,-0.11263 -0.13867,-0.14844 -0.0557,-0.0371 -0.11728,-0.0723 -0.1836,-0.10547 -0.0663,-0.0345 -0.12594,-0.064 -0.18164,-0.0879 -0.0557,-0.0252 -0.10412,-0.0534 -0.14258,-0.0879 -0.0371,-0.0345 -0.0547,-0.0722 -0.0547,-0.11328 0,-0.0597 0.027,-0.1175 0.0801,-0.17188 0.053,-0.0557 0.12278,-0.084 0.20899,-0.084 0.0597,0 0.1099,0.0189 0.15234,0.0547 0.0438,0.0345 0.0714,0.0853 0.082,0.15429 l 0.008,0.0684 0.31835,-0.10351 -0.01,-0.0625 c -0.0106,-0.0756 -0.0339,-0.14157 -0.0684,-0.19727 -0.0345,-0.0557 -0.0759,-0.0978 -0.125,-0.12695 -0.0477,-0.0292 -0.0961,-0.0492 -0.14648,-0.0625 -0.0504,-0.0146 -0.1032,-0.0234 -0.15625,-0.0234 z m 1.09765,0.0332 0.38867,1.95704 -0.63281,1.0332 h 0.33399 l 1.82617,-2.99024 h -0.33399 l -0.94922,1.54493 -0.30078,-1.54493 z m -4.94726,1.06446 -0.0547,0.26758 c -0.0942,0.11405 -0.21481,0.21332 -0.35938,0.29687 -0.14456,0.0836 -0.28276,0.125 -0.41406,0.125 -0.10875,0 -0.18914,-0.0239 -0.24219,-0.0703 -0.0517,-0.0477 -0.0781,-0.10173 -0.0781,-0.16406 0,-0.0663 0.0201,-0.12539 0.0586,-0.17579 0.0385,-0.0517 0.0912,-0.0932 0.16016,-0.125 0.069,-0.0318 0.14057,-0.0588 0.21484,-0.0801 0.0756,-0.0212 0.16232,-0.0363 0.25781,-0.0469 0.0955,-0.0106 0.17588,-0.0169 0.24219,-0.0195 0.0676,-0.004 0.13925,-0.006 0.21485,-0.008 z"
         id="text9415"
         style="font-style:oblique;font-variant:normal;font-weight:bold;font-stretch:normal;font-size:4.07429361px;line-height:1.25;font-family:Sawasdee;-inkscape-font-specification:'Sawasdee Bold Oblique';letter-spacing:0px;word-spacing:0px;fill:#ff00a5;fill-opacity:1;stroke:none;stroke-width:0.10185733"
         inkscape:original="M 110.94141 124.99414 C 110.75573 124.99414 110.59747 125.05823 110.46484 125.18555 C 110.33222 125.31287 110.26562 125.45859 110.26562 125.62305 C 110.26562 125.69599 110.28318 125.7607 110.32031 125.81641 C 110.35877 125.87211 110.40781 125.91606 110.46484 125.94922 C 110.52187 125.98105 110.58212 126.01309 110.64844 126.04492 C 110.71608 126.07675 110.77891 126.10629 110.83594 126.13281 C 110.89297 126.15934 110.93943 126.19389 110.97656 126.23633 C 111.01502 126.27877 111.03516 126.32586 111.03516 126.37891 C 111.03516 126.47174 110.99058 126.56286 110.90039 126.65039 C 110.8102 126.73792 110.69715 126.78125 110.56055 126.78125 C 110.47301 126.78125 110.40078 126.75485 110.34375 126.70312 C 110.28672 126.6514 110.25781 126.57102 110.25781 126.46094 C 110.25781 126.43043 110.25907 126.39275 110.26172 126.34766 L 109.94336 126.38477 L 109.92969 126.51758 C 109.92969 126.7006 109.98242 126.84068 110.08984 126.9375 C 110.1986 127.03432 110.33366 127.08203 110.49414 127.08203 C 110.72226 127.08203 110.92392 127.00353 111.09766 126.8457 C 111.2714 126.68788 111.35742 126.50761 111.35742 126.30469 C 111.35742 126.22511 111.33729 126.15413 111.29883 126.0918 C 111.26169 126.02946 111.21586 125.97917 111.16016 125.94336 C 111.10445 125.90622 111.04288 125.87105 110.97656 125.83789 C 110.91025 125.80341 110.85063 125.77387 110.79492 125.75 C 110.73922 125.7248 110.69081 125.69659 110.65234 125.66211 C 110.61521 125.62763 110.59766 125.58994 110.59766 125.54883 C 110.59766 125.48915 110.62468 125.43133 110.67773 125.37695 C 110.73079 125.32125 110.80051 125.29297 110.88672 125.29297 C 110.9464 125.29297 110.99662 125.31185 111.03906 125.34766 C 111.08283 125.38214 111.11048 125.43299 111.12109 125.50195 L 111.12891 125.57031 L 111.44727 125.4668 L 111.4375 125.4043 C 111.42689 125.3287 111.40362 125.26273 111.36914 125.20703 C 111.33466 125.15133 111.29321 125.10926 111.24414 125.08008 C 111.19639 125.0509 111.14805 125.03084 111.09766 125.01758 C 111.04726 125.00299 110.99446 124.99414 110.94141 124.99414 z M 113.04492 124.99414 C 112.74916 124.99414 112.47472 125.14181 112.21875 125.43359 L 112.43555 125.5918 L 112.45898 125.56641 C 112.4749 125.54916 112.48618 125.5353 112.49414 125.52734 C 112.50342 125.51939 112.51917 125.50685 112.53906 125.48828 C 112.55896 125.46839 112.57588 125.45397 112.5918 125.44336 C 112.60904 125.43142 112.63042 125.41568 112.6543 125.39844 C 112.6795 125.3812 112.70206 125.36803 112.72461 125.35742 C 112.74848 125.34681 112.77488 125.33678 112.80273 125.32617 C 112.83059 125.31556 112.86012 125.30609 112.89062 125.30078 C 112.92113 125.29548 112.95254 125.29297 112.98438 125.29297 C 113.10109 125.29297 113.19839 125.33441 113.2793 125.41797 C 113.36153 125.5002 113.4043 125.61458 113.4043 125.75781 C 113.4043 125.79097 113.40242 125.81479 113.39844 125.83203 C 113.32947 125.83203 113.27291 125.83266 113.23047 125.83398 C 113.18803 125.83398 113.1252 125.83586 113.04297 125.83984 C 112.96074 125.84382 112.89101 125.84946 112.83398 125.85742 C 112.77828 125.86405 112.70981 125.87666 112.62891 125.89258 C 112.54933 125.90849 112.48281 125.92605 112.42578 125.94727 C 112.36875 125.96849 112.30717 125.99677 112.24219 126.03125 C 112.17853 126.06441 112.12384 126.10272 112.08008 126.14648 C 112.03764 126.18892 111.9987 126.2411 111.96289 126.30078 C 111.92841 126.35914 111.90521 126.42252 111.89062 126.49414 C 111.88267 126.51801 111.87695 126.55382 111.87695 126.60156 C 111.87695 126.73419 111.92599 126.84919 112.02148 126.94336 C 112.11698 127.0362 112.2627 127.08203 112.45898 127.08203 C 112.70567 127.08203 112.95379 126.97838 113.20312 126.77148 C 113.18986 126.83117 113.18359 126.877 113.18359 126.91016 C 113.18359 126.93536 113.18986 126.98251 113.20312 127.04883 L 113.54883 127.04883 C 113.53424 127.00241 113.52734 126.94209 113.52734 126.86914 C 113.52734 126.77232 113.53925 126.67118 113.56445 126.56641 L 113.69922 125.90039 C 113.71381 125.82081 113.72266 125.74921 113.72266 125.68555 C 113.72266 125.47334 113.65732 125.30498 113.52734 125.18164 C 113.3987 125.05697 113.23723 124.99414 113.04492 124.99414 z M 115.23633 124.99414 C 115.05065 124.99414 114.89239 125.05823 114.75977 125.18555 C 114.62714 125.31287 114.56055 125.45859 114.56055 125.62305 C 114.56055 125.69599 114.5781 125.7607 114.61523 125.81641 C 114.6537 125.87211 114.70274 125.91606 114.75977 125.94922 C 114.8168 125.98105 114.879 126.01309 114.94531 126.04492 C 115.01295 126.07675 115.07383 126.10629 115.13086 126.13281 C 115.18789 126.15934 115.2363 126.19389 115.27344 126.23633 C 115.3119 126.27877 115.33008 126.32586 115.33008 126.37891 C 115.33008 126.47174 115.2855 126.56286 115.19531 126.65039 C 115.10513 126.73792 114.99207 126.78125 114.85547 126.78125 C 114.76794 126.78125 114.6957 126.75485 114.63867 126.70312 C 114.58164 126.6514 114.55273 126.57102 114.55273 126.46094 C 114.55273 126.43043 114.55399 126.39275 114.55664 126.34766 L 114.23828 126.38477 L 114.22461 126.51758 C 114.22461 126.7006 114.27734 126.84068 114.38477 126.9375 C 114.49352 127.03432 114.62858 127.08203 114.78906 127.08203 C 115.01718 127.08203 115.21884 127.00353 115.39258 126.8457 C 115.56632 126.68788 115.65234 126.50761 115.65234 126.30469 C 115.65234 126.22511 115.63416 126.15413 115.5957 126.0918 C 115.55857 126.02946 115.51078 125.97917 115.45508 125.94336 C 115.39937 125.90622 115.33975 125.87105 115.27344 125.83789 C 115.20712 125.80341 115.14555 125.77387 115.08984 125.75 C 115.03414 125.7248 114.98768 125.69659 114.94922 125.66211 C 114.91208 125.62763 114.89258 125.58994 114.89258 125.54883 C 114.89258 125.48915 114.91961 125.43133 114.97266 125.37695 C 115.02571 125.32125 115.09543 125.29297 115.18164 125.29297 C 115.24132 125.29297 115.29154 125.31185 115.33398 125.34766 C 115.37775 125.38214 115.40541 125.43299 115.41602 125.50195 L 115.42383 125.57031 L 115.74219 125.4668 L 115.73242 125.4043 C 115.72181 125.3287 115.69855 125.26273 115.66406 125.20703 C 115.62958 125.15133 115.58813 125.10926 115.53906 125.08008 C 115.49132 125.0509 115.44298 125.03084 115.39258 125.01758 C 115.34218 125.00299 115.28938 124.99414 115.23633 124.99414 z M 117.19727 124.99414 C 117.01159 124.99414 116.85333 125.05823 116.7207 125.18555 C 116.58808 125.31287 116.52148 125.45859 116.52148 125.62305 C 116.52148 125.69599 116.53904 125.7607 116.57617 125.81641 C 116.61463 125.87211 116.66367 125.91606 116.7207 125.94922 C 116.77773 125.98105 116.83798 126.01309 116.9043 126.04492 C 116.97194 126.07675 117.03477 126.10629 117.0918 126.13281 C 117.14883 126.15934 117.19529 126.19389 117.23242 126.23633 C 117.27088 126.27877 117.29102 126.32586 117.29102 126.37891 C 117.29102 126.47174 117.24644 126.56286 117.15625 126.65039 C 117.06606 126.73792 116.95301 126.78125 116.81641 126.78125 C 116.72887 126.78125 116.65664 126.75485 116.59961 126.70312 C 116.54258 126.6514 116.51367 126.57102 116.51367 126.46094 C 116.51367 126.43043 116.51493 126.39275 116.51758 126.34766 L 116.19922 126.38477 L 116.18555 126.51758 C 116.18555 126.7006 116.23828 126.84068 116.3457 126.9375 C 116.45446 127.03432 116.58952 127.08203 116.75 127.08203 C 116.97812 127.08203 117.17977 127.00353 117.35352 126.8457 C 117.52726 126.68788 117.61328 126.50761 117.61328 126.30469 C 117.61328 126.22511 117.59315 126.15413 117.55469 126.0918 C 117.51755 126.02946 117.47172 125.97917 117.41602 125.94336 C 117.36031 125.90622 117.29874 125.87105 117.23242 125.83789 C 117.16611 125.80341 117.10648 125.77387 117.05078 125.75 C 116.99508 125.7248 116.94666 125.69659 116.9082 125.66211 C 116.87107 125.62763 116.85352 125.58994 116.85352 125.54883 C 116.85352 125.48915 116.88054 125.43133 116.93359 125.37695 C 116.98664 125.32125 117.05637 125.29297 117.14258 125.29297 C 117.20226 125.29297 117.25248 125.31185 117.29492 125.34766 C 117.33869 125.38214 117.36634 125.43299 117.37695 125.50195 L 117.38477 125.57031 L 117.70312 125.4668 L 117.69336 125.4043 C 117.68275 125.3287 117.65948 125.26273 117.625 125.20703 C 117.59052 125.15133 117.54907 125.10926 117.5 125.08008 C 117.45225 125.0509 117.40391 125.03084 117.35352 125.01758 C 117.30312 125.00299 117.25032 124.99414 117.19727 124.99414 z M 118.29492 125.02734 L 118.68359 126.98438 L 118.05078 128.01758 L 118.38477 128.01758 L 120.21094 125.02734 L 119.87695 125.02734 L 118.92773 126.57227 L 118.62695 125.02734 L 118.29492 125.02734 z M 113.34766 126.0918 L 113.29297 126.35938 C 113.1988 126.47343 113.07816 126.5727 112.93359 126.65625 C 112.78903 126.7398 112.65083 126.78125 112.51953 126.78125 C 112.41078 126.78125 112.33039 126.75736 112.27734 126.71094 C 112.22562 126.66319 112.19922 126.60921 112.19922 126.54688 C 112.19922 126.48056 112.21935 126.42149 112.25781 126.37109 C 112.29627 126.31937 112.349 126.27792 112.41797 126.24609 C 112.48693 126.21426 112.55854 126.18724 112.63281 126.16602 C 112.70841 126.1448 112.79513 126.12975 112.89062 126.11914 C 112.98612 126.10853 113.0665 126.10226 113.13281 126.09961 C 113.20045 126.09563 113.27206 126.09312 113.34766 126.0918 z "
         inkscape:radius="0"
         sodipodi:type="inkscape:offset" />
      <g
         id="text9427"
         style="font-style:normal;font-weight:normal;font-size:3.87465334px;line-height:1.25;font-family:sans-serif;letter-spacing:0px;word-spacing:0px;fill:#ff00a5;fill-opacity:1;stroke:none;stroke-width:0.09686632"
         transform="rotate(21.599364)"
         aria-label="!">
        <path
           d="m 158.85412,73.510259 h 0.38406 v 0.480548 h -0.38406 z m 0,-2.34409 h 0.38406 v 1.239208 l -0.0378,0.675416 h -0.30649 l -0.0397,-0.675416 z"
           style="fill:#ff00a5;fill-opacity:1;stroke-width:0.09686632"
           id="path9501" />
      </g>
      <g
         id="text9431"
         style="font-style:normal;font-variant:normal;font-weight:bold;font-stretch:normal;font-size:4.07429361px;line-height:1.25;font-family:Sawasdee;-inkscape-font-specification:'Sawasdee Bold';letter-spacing:0px;word-spacing:0px;fill:#ff00a5;fill-opacity:1;stroke:none;stroke-width:0.10185733"
         aria-label="hey">
        <path
           d="m 107.07508,125.0268 h 0.33223 l 0.3004,1.54576 0.94894,-1.54576 h 0.33422 l -1.82627,2.99007 h -0.33422 l 0.63263,-1.0325 z m -2.17547,0.78382 h 1.25929 q -0.0199,-0.22878 -0.16711,-0.36804 -0.14522,-0.14125 -0.35809,-0.14125 -0.21286,0 -0.41777,0.14125 -0.20491,0.14125 -0.31632,0.36804 z m -0.42374,0.45557 q 0,-0.32029 0.17507,-0.61472 0.17705,-0.29642 0.45955,-0.47348 0.28448,-0.17905 0.58488,-0.17905 0.35014,0 0.56698,0.23475 0.21685,0.23276 0.21685,0.58091 0,0.10345 -0.0318,0.29045 h -1.65121 q -0.008,0.0676 -0.008,0.10544 0,0.2447 0.1492,0.40385 0.14921,0.15716 0.37401,0.15716 0.19695,0 0.38793,-0.0995 0.19098,-0.10146 0.34815,-0.29642 l 0.24071,0.14523 q -0.10742,0.13726 -0.23474,0.2427 -0.12534,0.10345 -0.23475,0.16114 -0.10942,0.0577 -0.22481,0.0935 -0.11339,0.0358 -0.19297,0.0457 -0.0776,0.01 -0.1492,0.01 -0.35213,0 -0.56499,-0.22878 -0.21088,-0.22878 -0.21088,-0.57892 z m -2.40624,0.78184 0.63263,-2.97018 h 0.31234 l -0.27653,1.30505 q 0.16114,-0.1691 0.34218,-0.27653 0.18103,-0.10743 0.34019,-0.10743 0.2626,0 0.38992,0.15717 0.12931,0.15517 0.12931,0.40981 0,0.12732 -0.0259,0.24868 l -0.2626,1.23343 h -0.31234 l 0.26459,-1.23343 q 0.0159,-0.0776 0.0159,-0.18303 0,-0.33422 -0.27056,-0.33422 -0.1313,0 -0.30239,0.13329 -0.1691,0.13329 -0.29443,0.30836 -0.12533,0.17308 -0.1512,0.29841 l -0.21485,1.01062 z"
           style="font-style:oblique;font-variant:normal;font-weight:bold;font-stretch:normal;font-family:Sawasdee;-inkscape-font-specification:'Sawasdee Bold Oblique';letter-spacing:0.15821405px;fill:#ff00a5;fill-opacity:1;stroke-width:0.10185733"
           id="path9494" />
      </g>
    </g>
  </g>
</svg>
