<?xml version="1.0" encoding="UTF-8" standalone="no"?>
<!-- Created with Inkscape (http://www.inkscape.org/) -->

<svg
   xmlns:dc="http://purl.org/dc/elements/1.1/"
   xmlns:cc="http://creativecommons.org/ns#"
   xmlns:rdf="http://www.w3.org/1999/02/22-rdf-syntax-ns#"
   xmlns:svg="http://www.w3.org/2000/svg"
   xmlns="http://www.w3.org/2000/svg"
   xmlns:sodipodi="http://sodipodi.sourceforge.net/DTD/sodipodi-0.dtd"
   xmlns:inkscape="http://www.inkscape.org/namespaces/inkscape"
   width="27.191507mm"
   height="8.5991697mm"
   viewBox="0 0 27.191508 8.5991687"
   version="1.1"
   id="svg4785"
   inkscape:version="0.92.5 (2060ec1f9f, 2020-04-08)"
   sodipodi:docname="logo-3-raster.svg">
  <defs
     id="defs4779" />
  <sodipodi:namedview
     id="base"
     pagecolor="#ffffff"
     bordercolor="#666666"
     borderopacity="1.0"
     inkscape:pageopacity="0.0"
     inkscape:pageshadow="2"
     inkscape:zoom="2.8"
     inkscape:cx="34.403407"
     inkscape:cy="-38.283098"
     inkscape:document-units="mm"
     inkscape:current-layer="layer1"
     showgrid="false"
     inkscape:window-width="1848"
     inkscape:window-height="1016"
     inkscape:window-x="72"
     inkscape:window-y="27"
     inkscape:window-maximized="1"
     fit-margin-top="0"
     fit-margin-left="0"
     fit-margin-right="0"
     fit-margin-bottom="0" />
  <metadata
     id="metadata4782">
    <rdf:RDF>
      <cc:Work
         rdf:about="">
        <dc:format>image/svg+xml</dc:format>
        <dc:type
           rdf:resource="http://purl.org/dc/dcmitype/StillImage" />
        <dc:title></dc:title>
      </cc:Work>
    </rdf:RDF>
  </metadata>
  <g
     inkscape:label="Layer 1"
     inkscape:groupmode="layer"
     id="layer1"
     transform="translate(-98.038479,-120.24777)">
    <g
       id="g4895">
      <g
         id="text4792"
         style="font-style:oblique;font-variant:normal;font-weight:bold;font-stretch:normal;font-size:5.96517277px;line-height:1.25;font-family:Sawasdee;-inkscape-font-specification:'Sawasdee Bold Oblique';letter-spacing:0px;word-spacing:0px;fill:#ff00a5;fill-opacity:1;stroke:none;stroke-width:0.14912932"
         aria-label="sassy">
        <path
           d="m 115.9747,123.74052 h 0.48059 l 0.92624,2.26316 0.90293,-2.26316 h 0.48642 l -1.73596,4.37776 h -0.49224 l 0.60292,-1.51168 z m -0.73262,0.6437 -0.43108,0.15146 -0.032,-0.099 q -0.0553,-0.15146 -0.17185,-0.22719 -0.11359,-0.0786 -0.24466,-0.0786 -0.15437,0 -0.2534,0.0903 -0.099,0.0903 -0.099,0.23302 0,0.0932 0.0757,0.17185 0.0757,0.0757 0.19807,0.13398 0.12233,0.0553 0.26796,0.11359 0.14855,0.0583 0.29418,0.1369 0.14855,0.0786 0.27088,0.17767 0.12234,0.099 0.19807,0.25632 0.0757,0.15729 0.0757,0.35535 0,0.4136 -0.30875,0.68157 -0.30874,0.26796 -0.73108,0.26796 -0.24175,0 -0.45147,-0.0932 -0.20971,-0.0961 -0.36699,-0.30875 -0.15729,-0.21554 -0.20098,-0.51846 l -0.0146,-0.099 0.45729,-0.0553 0.0146,0.0932 q 0.0379,0.27379 0.19515,0.40777 0.15729,0.13399 0.37282,0.13399 0.23011,0 0.40487,-0.13981 0.17476,-0.14272 0.17476,-0.36991 0,-0.12816 -0.0786,-0.22428 -0.0757,-0.099 -0.19807,-0.16311 -0.12233,-0.067 -0.27088,-0.12524 -0.14563,-0.0612 -0.29418,-0.13108 -0.14854,-0.0699 -0.27088,-0.15437 -0.12233,-0.0874 -0.20097,-0.22719 -0.0757,-0.13981 -0.0757,-0.32039 0,-0.34661 0.23884,-0.55341 0.24175,-0.2068 0.57671,-0.2068 0.15437,0 0.30583,0.0495 0.15146,0.0495 0.30583,0.19224 0.15729,0.14272 0.23593,0.35826 z m -2.87053,0 -0.43108,0.15146 -0.032,-0.099 q -0.0553,-0.15146 -0.17185,-0.22719 -0.11359,-0.0786 -0.24466,-0.0786 -0.15437,0 -0.2534,0.0903 -0.099,0.0903 -0.099,0.23302 0,0.0932 0.0757,0.17185 0.0757,0.0757 0.19807,0.13398 0.12233,0.0553 0.26796,0.11359 0.14855,0.0583 0.29418,0.1369 0.14855,0.0786 0.27088,0.17767 0.12234,0.099 0.19807,0.25632 0.0757,0.15729 0.0757,0.35535 0,0.4136 -0.30875,0.68157 -0.30874,0.26796 -0.73108,0.26796 -0.24175,0 -0.45147,-0.0932 -0.20971,-0.0961 -0.367,-0.30875 -0.15728,-0.21554 -0.20097,-0.51846 l -0.0146,-0.099 0.45729,-0.0553 0.0146,0.0932 q 0.0379,0.27379 0.19515,0.40777 0.15729,0.13399 0.37282,0.13399 0.23011,0 0.40487,-0.13981 0.17476,-0.14272 0.17476,-0.36991 0,-0.12816 -0.0786,-0.22428 -0.0757,-0.099 -0.19806,-0.16311 -0.12233,-0.067 -0.27088,-0.12524 -0.14563,-0.0612 -0.29418,-0.13108 -0.14854,-0.0699 -0.27088,-0.15437 -0.12233,-0.0874 -0.20097,-0.22719 -0.0757,-0.13981 -0.0757,-0.32039 0,-0.34661 0.23884,-0.55341 0.24175,-0.2068 0.57671,-0.2068 0.15437,0 0.30583,0.0495 0.15146,0.0495 0.30583,0.19224 0.15729,0.14272 0.23593,0.35826 z m -2.72199,2.31559 h -0.5068 q -0.0845,-0.19224 -0.0845,-0.40487 -0.45438,0.45438 -0.99614,0.45438 -0.25631,0 -0.45729,-0.0786 -0.20097,-0.0786 -0.32039,-0.2068 -0.11651,-0.12816 -0.17768,-0.27379 -0.0583,-0.14855 -0.0583,-0.30001 0,-0.15728 0.0495,-0.28544 0.0495,-0.13107 0.12524,-0.22428 0.0757,-0.0961 0.20098,-0.16893 0.12524,-0.0757 0.23884,-0.12234 0.1165,-0.0466 0.28253,-0.0815 0.16893,-0.035 0.28835,-0.0495 0.12233,-0.0175 0.30001,-0.0262 0.17767,-0.009 0.27088,-0.009 0.0932,-0.003 0.24466,-0.003 -0.0408,-0.36409 -0.26796,-0.57671 -0.22428,-0.21263 -0.50681,-0.21263 -0.0699,0 -0.13398,0.0117 -0.0641,0.0117 -0.11942,0.0349 -0.0553,0.0233 -0.10195,0.0466 -0.0466,0.0233 -0.0932,0.0612 -0.0437,0.0379 -0.0757,0.0641 -0.0291,0.0233 -0.0641,0.067 -0.035,0.0408 -0.0495,0.0612 -0.0146,0.0175 -0.0408,0.0524 -0.0262,0.0349 -0.0262,0.0379 l -0.37865,-0.23301 q 0.0524,-0.0786 0.0874,-0.12525 0.0379,-0.0466 0.14564,-0.15728 0.11068,-0.11068 0.21553,-0.17768 0.10777,-0.067 0.27962,-0.12233 0.17185,-0.0583 0.35535,-0.0583 0.23593,0 0.45729,0.0903 0.22428,0.0903 0.39904,0.2534 0.17476,0.16312 0.27961,0.41943 0.10777,0.25632 0.10777,0.56215 v 0.97575 q 0,0.19806 0.0379,0.39903 0.0379,0.19807 0.0932,0.30584 z m -1.58741,-0.3903 q 0.28545,0 0.56506,-0.1835 0.27962,-0.1835 0.43108,-0.43399 v -0.39321 q -0.24466,0.003 -0.43981,0.0175 -0.19224,0.0146 -0.41069,0.0524 -0.21845,0.0379 -0.36409,0.099 -0.14563,0.0612 -0.24175,0.16894 -0.0961,0.10777 -0.0961,0.2534 0,0.15146 0.13981,0.28544 0.13981,0.13399 0.41651,0.13399 z m -1.97925,-1.92529 -0.43107,0.15146 -0.032,-0.099 q -0.0553,-0.15146 -0.17185,-0.22719 -0.1136,-0.0786 -0.24467,-0.0786 -0.15437,0 -0.2534,0.0903 -0.099,0.0903 -0.099,0.23302 0,0.0932 0.0757,0.17185 0.0757,0.0757 0.19806,0.13398 0.12233,0.0553 0.26797,0.11359 0.14854,0.0583 0.29418,0.1369 0.14854,0.0786 0.27088,0.17767 0.12233,0.099 0.19806,0.25632 0.0757,0.15729 0.0757,0.35535 0,0.4136 -0.30874,0.68157 -0.30875,0.26796 -0.73109,0.26796 -0.24175,0 -0.45146,-0.0932 -0.20972,-0.0961 -0.367,-0.30875 -0.15729,-0.21554 -0.20098,-0.51846 l -0.0146,-0.099 0.45729,-0.0553 0.0146,0.0932 q 0.0379,0.27379 0.19515,0.40777 0.15729,0.13399 0.37283,0.13399 0.2301,0 0.40486,-0.13981 0.17476,-0.14272 0.17476,-0.36991 0,-0.12816 -0.0786,-0.22428 -0.0757,-0.099 -0.19806,-0.16311 -0.12234,-0.067 -0.27088,-0.12524 -0.14564,-0.0612 -0.29418,-0.13108 -0.14855,-0.0699 -0.27088,-0.15437 -0.12234,-0.0874 -0.20098,-0.22719 -0.0757,-0.13981 -0.0757,-0.32039 0,-0.34661 0.23884,-0.55341 0.24175,-0.2068 0.57671,-0.2068 0.15437,0 0.30583,0.0495 0.15146,0.0495 0.30584,0.19224 0.15728,0.14272 0.23592,0.35826 z"
           style="font-style:normal;font-variant:normal;font-weight:bold;font-stretch:normal;font-family:Sawasdee;-inkscape-font-specification:'Sawasdee Bold';letter-spacing:0.23164119px;fill:#ff00a5;fill-opacity:1;stroke-width:0.14912932"
           id="path4885" />
      </g>
      <g
         id="text4796"
         style="font-style:normal;font-variant:normal;font-weight:bold;font-stretch:normal;font-size:2.28758287px;line-height:1.25;font-family:Sawasdee;-inkscape-font-specification:'Sawasdee Bold';letter-spacing:0.59372509px;word-spacing:0px;fill:#ff00a5;fill-opacity:1;stroke:none;stroke-width:0.05718956"
         aria-label="HEY">
        <path
           d="m 108.59187,120.97642 h 0.20441 l 0.50041,0.77072 0.49817,-0.77072 h 0.20441 l -0.61546,0.95278 v 0.71487 h -0.1776 v -0.71487 z m -0.79478,0.61992 v 0.17202 h -0.78301 v 0.7037 h 0.84779 v 0.17201 h -1.02539 v -1.66765 h 1.03098 v 0.17201 h -0.85338 v 0.44791 z m -2.04469,-0.61992 h 0.1776 v 1.66765 h -0.1776 v -0.87571 h -0.888 v 0.87571 h -0.1776 v -1.66765 h 0.1776 v 0.61992 h 0.888 z"
           style="font-style:normal;font-variant:normal;font-weight:bold;font-stretch:normal;font-family:Sawasdee;-inkscape-font-specification:'Sawasdee Bold';letter-spacing:0.59372509px;fill:#ff00a5;fill-opacity:1;stroke-width:0.05718956"
           id="path4873" />
      </g>
      <path
         id="path4817"
         d="m 119.11084,126.55652 a 0.38689014,0.38689011 0 0 1 -0.38689,0.38689 0.38689014,0.38689011 0 0 1 -0.38689,-0.38689 0.38689014,0.38689011 0 0 1 0.38689,-0.38689 0.38689014,0.38689011 0 0 1 0.38689,0.38689 z"
         style="opacity:0.97000002;fill:#ff00a5;fill-opacity:1;stroke:#ff00af;stroke-width:0;stroke-miterlimit:4;stroke-dasharray:none;stroke-opacity:0.94117647" />
    </g>
  </g>
</svg>
