<?xml version="1.0" encoding="UTF-8" standalone="no"?>
<!-- Created with Inkscape (http://www.inkscape.org/) -->

<svg
   xmlns:dc="http://purl.org/dc/elements/1.1/"
   xmlns:cc="http://creativecommons.org/ns#"
   xmlns:rdf="http://www.w3.org/1999/02/22-rdf-syntax-ns#"
   xmlns:svg="http://www.w3.org/2000/svg"
   xmlns="http://www.w3.org/2000/svg"
   xmlns:sodipodi="http://sodipodi.sourceforge.net/DTD/sodipodi-0.dtd"
   xmlns:inkscape="http://www.inkscape.org/namespaces/inkscape"
   width="39.917809mm"
   height="18.54809mm"
   viewBox="0 0 39.936817 18.54809"
   version="1.1"
   id="svg9349"
   inkscape:version="0.92.5 (2060ec1f9f, 2020-04-08)"
   sodipodi:docname="logo-1-raster.svg">
  <defs
     id="defs9343" />
  <sodipodi:namedview
     id="base"
     pagecolor="#ffffff"
     bordercolor="#666666"
     borderopacity="1.0"
     inkscape:pageopacity="0.0"
     inkscape:pageshadow="2"
     inkscape:zoom="2.8"
     inkscape:cx="42.992317"
     inkscape:cy="-17.048071"
     inkscape:document-units="mm"
     inkscape:current-layer="g4825"
     showgrid="false"
     inkscape:window-width="1848"
     inkscape:window-height="1016"
     inkscape:window-x="72"
     inkscape:window-y="27"
     inkscape:window-maximized="1"
     fit-margin-top="0"
     fit-margin-left="0"
     fit-margin-right="0"
     fit-margin-bottom="0"
     showguides="true"
     inkscape:guide-bbox="true" />
  <metadata
     id="metadata9346">
    <rdf:RDF>
      <cc:Work
         rdf:about="">
        <dc:format>image/svg+xml</dc:format>
        <dc:type
           rdf:resource="http://purl.org/dc/dcmitype/StillImage" />
        <dc:title></dc:title>
      </cc:Work>
    </rdf:RDF>
  </metadata>
  <g
     inkscape:label="Layer 1"
     inkscape:groupmode="layer"
     id="layer1"
     transform="translate(-60.610171,-111.08641)">
    <g
       id="g4825"
       style="fill:#ff00a5;fill-opacity:1"
       inkscape:export-xdpi="96"
       inkscape:export-ydpi="96">
      <path
         d="m 64.220703,115.38477 c -0.90042,0.0693 -1.624475,0.32602 -2.169922,0.76757 -0.545447,0.45887 -0.818359,1.06011 -0.818359,1.80469 0,0.1645 0.0181,0.32463 0.05273,0.48047 0.03463,0.14718 0.100076,0.29422 0.195313,0.44141 0.09524,0.14718 0.17683,0.27807 0.246093,0.39062 0.07792,0.1039 0.20881,0.22476 0.390626,0.36328 0.181815,0.13853 0.31075,0.2463 0.388671,0.32422 0.08658,0.0693 0.246706,0.17398 0.480469,0.3125 0.242421,0.12987 0.397534,0.21648 0.466797,0.25977 0.07792,0.0433 0.251137,0.13296 0.519531,0.27148 0.268395,0.13853 0.425461,0.22207 0.46875,0.24805 1.168815,0.60605 1.751953,1.28081 1.751953,2.02539 0,0.34631 -0.133949,0.63538 -0.402343,0.86914 -0.259737,0.2251 -0.596141,0.37716 -1.011719,0.45508 v 0.0781 c 1.030288,-0.0433 1.830923,-0.29504 2.402344,-0.7539 0.57142,-0.45887 0.857421,-1.09437 0.857421,-1.90821 0.0087,-0.69263 -0.382054,-1.33314 -1.169921,-1.92187 -0.337658,-0.25108 -1.017432,-0.64485 -2.039063,-1.18164 -1.168815,-0.62337 -1.751953,-1.30816 -1.751953,-2.05274 0,-0.329 0.102758,-0.59383 0.310547,-0.79297 0.207789,-0.20778 0.485716,-0.34173 0.832031,-0.40234 z m 0.558594,0 v 0.0781 c 0.640683,0.15584 1.210733,0.4942 1.712891,1.01367 0.519473,0.50216 0.884007,1.1034 1.091796,1.80469 H 67.6875 v -2.89648 h -0.103516 l -0.466796,0.68945 c -0.571421,-0.41558 -1.350892,-0.64616 -2.337891,-0.68945 z m 4.492187,0.13085 v 0.0781 c 0.649342,0 0.97461,0.22056 0.97461,0.66211 v 7.34961 c 0,0.44155 -0.325268,0.66406 -0.97461,0.66406 v 0.0762 h 4.15625 v -0.0762 c -0.649341,0 -0.974609,-0.22251 -0.974609,-0.66406 v -7.34961 c 0,-0.44155 0.325268,-0.66211 0.974609,-0.66211 v -0.0781 z m 5.273438,0 v 0.0781 c 0.649341,0 0.974609,0.22056 0.974609,0.66211 v 7.34961 c 0,0.44155 -0.325268,0.66406 -0.974609,0.66406 v 0.0762 h 3.18164 v -8.08984 c 0,-0.44155 0.325268,-0.66211 0.97461,-0.66211 v -0.0781 z m 8.285156,0 v 0.0781 c 0.649342,0 0.97461,0.22056 0.97461,0.66211 v 7.34961 c 0,0.44155 -0.325268,0.66406 -0.97461,0.66406 v 0.0762 h 3.181641 v -8.08984 c 0,-0.44155 0.325268,-0.66211 0.974609,-0.66211 v -0.0781 z m 6.882813,0 v 0.0781 c 0.225105,0 0.403334,0.0524 0.533203,0.15625 0.138526,0.0952 0.2644,0.25536 0.376953,0.48047 l 2.558594,5 v 2.375 c 0,0.44155 -0.325268,0.66406 -0.97461,0.66406 v 0.0762 h 4.15625 v -0.0762 c -0.649341,0 -0.974609,-0.22251 -0.974609,-0.66406 v -3.03711 l -1.195313,-2.33789 c -0.294368,-0.56276 -0.488747,-0.94039 -0.583984,-1.13086 -0.28571,-0.55411 -0.427734,-0.9036 -0.427734,-1.05078 0,-0.30303 0.19744,-0.45508 0.595703,-0.45508 v -0.0781 z m 5.3125,0 v 0.0781 c 0.432894,0 0.826667,0.14202 1.18164,0.42773 0.346316,0.2684 0.519532,0.62486 0.519531,1.06641 0,0.54545 -0.117799,1.06816 -0.351562,1.57031 -0.08658,0.20779 -0.220528,0.48572 -0.402344,0.83203 l 0.05273,0.0898 1.933593,-3.36328 c 0.242421,-0.41558 0.533437,-0.62305 0.871094,-0.62305 v -0.0781 z m -33.857422,5.79297 v 3.16797 h 0.103515 l 0.429688,-0.63672 c 0.640683,0.39827 1.480585,0.61075 2.519531,0.63672 v -0.0781 c -1.51513,-0.51082 -2.499009,-1.54008 -2.949219,-3.08985 z m 20.662109,0.31055 c -0.294368,0.95237 -0.709305,1.61404 -1.246094,1.98633 -0.519473,0.37229 -1.256616,0.5948 -2.208984,0.66406 v 0.0762 h 3.558594 v -2.72656 z m 8.285156,0 c -0.294368,0.95237 -0.709304,1.61404 -1.246093,1.98633 -0.519474,0.37229 -1.254664,0.5948 -2.207032,0.66406 v 0.0762 h 3.558594 v -2.72656 z"
         id="text4829"
         style="font-style:normal;font-variant:normal;font-weight:normal;font-stretch:normal;font-size:12.98682976px;line-height:1.25;font-family:'Gabriela Stencil';-inkscape-font-specification:'Gabriela Stencil';letter-spacing:0px;word-spacing:0px;fill:#ff00a5;fill-opacity:1;stroke:none;stroke-width:0.32467079"
         inkscape:original="M 64.220703 115.38477 C 63.320283 115.45403 62.596228 115.71079 62.050781 116.15234 C 61.505334 116.61121 61.232422 117.21245 61.232422 117.95703 C 61.232422 118.12153 61.250525 118.28166 61.285156 118.4375 C 61.319788 118.58468 61.385232 118.73172 61.480469 118.87891 C 61.575706 119.02609 61.657299 119.15698 61.726562 119.26953 C 61.804483 119.37343 61.935372 119.49429 62.117188 119.63281 C 62.299003 119.77134 62.427938 119.87911 62.505859 119.95703 C 62.592438 120.02629 62.752565 120.13101 62.986328 120.26953 C 63.228749 120.3994 63.383862 120.48601 63.453125 120.5293 C 63.531046 120.57259 63.704262 120.66226 63.972656 120.80078 C 64.241051 120.93931 64.398117 121.02285 64.441406 121.04883 C 65.610221 121.65488 66.193359 122.32964 66.193359 123.07422 C 66.193359 123.42053 66.05941 123.7096 65.791016 123.94336 C 65.531279 124.16846 65.194875 124.32052 64.779297 124.39844 L 64.779297 124.47656 C 65.809585 124.43327 66.61022 124.18152 67.181641 123.72266 C 67.753061 123.26379 68.039062 122.62829 68.039062 121.81445 C 68.04772 121.12182 67.657008 120.48131 66.869141 119.89258 C 66.531483 119.6415 65.851709 119.24773 64.830078 118.71094 C 63.661263 118.08757 63.078125 117.40278 63.078125 116.6582 C 63.078125 116.3292 63.180883 116.06437 63.388672 115.86523 C 63.596461 115.65745 63.874388 115.5235 64.220703 115.46289 L 64.220703 115.38477 z M 64.779297 115.38477 L 64.779297 115.46289 C 65.41998 115.61873 65.99003 115.95709 66.492188 116.47656 C 67.011661 116.97872 67.376195 117.57996 67.583984 118.28125 L 67.6875 118.28125 L 67.6875 115.38477 L 67.583984 115.38477 L 67.117188 116.07422 C 66.545767 115.65864 65.766296 115.42806 64.779297 115.38477 z M 69.271484 115.51562 L 69.271484 115.59375 C 69.920826 115.59375 70.246094 115.81431 70.246094 116.25586 L 70.246094 123.60547 C 70.246094 124.04702 69.920826 124.26953 69.271484 124.26953 L 69.271484 124.3457 L 73.427734 124.3457 L 73.427734 124.26953 C 72.778393 124.26953 72.453125 124.04702 72.453125 123.60547 L 72.453125 116.25586 C 72.453125 115.81431 72.778393 115.59375 73.427734 115.59375 L 73.427734 115.51562 L 69.271484 115.51562 z M 74.544922 115.51562 L 74.544922 115.59375 C 75.194263 115.59375 75.519531 115.81431 75.519531 116.25586 L 75.519531 123.60547 C 75.519531 124.04702 75.194263 124.26953 74.544922 124.26953 L 74.544922 124.3457 L 77.726562 124.3457 L 77.726562 116.25586 C 77.726562 115.81431 78.05183 115.59375 78.701172 115.59375 L 78.701172 115.51562 L 74.544922 115.51562 z M 82.830078 115.51562 L 82.830078 115.59375 C 83.47942 115.59375 83.804688 115.81431 83.804688 116.25586 L 83.804688 123.60547 C 83.804688 124.04702 83.47942 124.26953 82.830078 124.26953 L 82.830078 124.3457 L 86.011719 124.3457 L 86.011719 116.25586 C 86.011719 115.81431 86.336987 115.59375 86.986328 115.59375 L 86.986328 115.51562 L 82.830078 115.51562 z M 89.712891 115.51562 L 89.712891 115.59375 C 89.937996 115.59375 90.116225 115.64611 90.246094 115.75 C 90.38462 115.84524 90.510494 116.00536 90.623047 116.23047 L 93.181641 121.23047 L 93.181641 123.60547 C 93.181641 124.04702 92.856373 124.26953 92.207031 124.26953 L 92.207031 124.3457 L 96.363281 124.3457 L 96.363281 124.26953 C 95.71394 124.26953 95.388672 124.04702 95.388672 123.60547 L 95.388672 120.56836 L 94.193359 118.23047 C 93.898991 117.66771 93.704612 117.29008 93.609375 117.09961 C 93.323665 116.5455 93.181641 116.19601 93.181641 116.04883 C 93.181641 115.7458 93.379081 115.59375 93.777344 115.59375 L 93.777344 115.51562 L 89.712891 115.51562 z M 95.025391 115.51562 L 95.025391 115.59375 C 95.458285 115.59375 95.852058 115.73577 96.207031 116.02148 C 96.553347 116.28988 96.726563 116.64634 96.726562 117.08789 C 96.726562 117.63334 96.608763 118.15605 96.375 118.6582 C 96.288421 118.86599 96.154472 119.14392 95.972656 119.49023 L 96.025391 119.58008 L 97.958984 116.2168 C 98.201405 115.80122 98.492421 115.59375 98.830078 115.59375 L 98.830078 115.51562 L 95.025391 115.51562 z M 61.167969 121.30859 L 61.167969 124.47656 L 61.271484 124.47656 L 61.701172 123.83984 C 62.341855 124.23811 63.181757 124.45059 64.220703 124.47656 L 64.220703 124.39844 C 62.705573 123.88762 61.721694 122.85836 61.271484 121.30859 L 61.167969 121.30859 z M 81.830078 121.61914 C 81.53571 122.57151 81.120773 123.23318 80.583984 123.60547 C 80.064511 123.97776 79.327368 124.20027 78.375 124.26953 L 78.375 124.3457 L 81.933594 124.3457 L 81.933594 121.61914 L 81.830078 121.61914 z M 90.115234 121.61914 C 89.820866 122.57151 89.40593 123.23318 88.869141 123.60547 C 88.349667 123.97776 87.614477 124.20027 86.662109 124.26953 L 86.662109 124.3457 L 90.220703 124.3457 L 90.220703 121.61914 L 90.115234 121.61914 z "
         inkscape:radius="0"
         sodipodi:type="inkscape:offset" />
      <path
         d="m 61.304688,111.00391 v 0.26171 h 0.8125 v 2.0254 h 0.310546 v -2.0254 h 0.810547 v -0.26171 z m 2.492187,0 v 2.28711 h 0.308594 v -1.08985 h 1.125 v 1.08985 h 0.308593 v -2.28711 h -0.308593 v 0.9375 h -1.125 v -0.9375 z m 3.207031,0 -0.873047,2.28711 h 0.326172 l 0.207031,-0.5879 h 1.03125 l 0.207032,0.5879 h 0.322265 l -0.871093,-2.28711 z m 1.253906,0 v 0.26171 h 0.810547 v 2.0254 h 0.310547 v -2.0254 h 0.8125 v -0.26171 z m -1.080078,0.30468 0.419922,1.13868 h -0.839844 z"
         id="text4833"
         style="font-style:normal;font-weight:normal;font-size:3.13550639px;line-height:1.25;font-family:sans-serif;letter-spacing:0.25930539px;word-spacing:0px;fill:#ff00a5;fill-opacity:1;stroke:none;stroke-width:0.07838765"
         inkscape:original="M 61.304688 111.00391 L 61.304688 111.26562 L 62.117188 111.26562 L 62.117188 113.29102 L 62.427734 113.29102 L 62.427734 111.26562 L 63.238281 111.26562 L 63.238281 111.00391 L 61.304688 111.00391 z M 63.796875 111.00391 L 63.796875 113.29102 L 64.105469 113.29102 L 64.105469 112.20117 L 65.230469 112.20117 L 65.230469 113.29102 L 65.539062 113.29102 L 65.539062 111.00391 L 65.230469 111.00391 L 65.230469 111.94141 L 64.105469 111.94141 L 64.105469 111.00391 L 63.796875 111.00391 z M 67.003906 111.00391 L 66.130859 113.29102 L 66.457031 113.29102 L 66.664062 112.70312 L 67.695312 112.70312 L 67.902344 113.29102 L 68.224609 113.29102 L 67.353516 111.00391 L 67.003906 111.00391 z M 68.257812 111.00391 L 68.257812 111.26562 L 69.068359 111.26562 L 69.068359 113.29102 L 69.378906 113.29102 L 69.378906 111.26562 L 70.191406 111.26562 L 70.191406 111.00391 L 68.257812 111.00391 z M 67.177734 111.30859 L 67.597656 112.44727 L 66.757812 112.44727 L 67.177734 111.30859 z "
         inkscape:radius="0"
         sodipodi:type="inkscape:offset"
         transform="matrix(1.3946008,0,0,1.3946008,-24.885396,-43.724065)" />
      <circle
         r="1.3716214"
         style="opacity:0.93999999;fill:#ff00a5;fill-opacity:1;stroke:#ffffff;stroke-width:0;stroke-miterlimit:4;stroke-dasharray:none;stroke-opacity:1"
         id="circle4835"
         cx="99.233856"
         cy="123.22173" />
      <path
         d="m 93.851562,126.83789 c -0.357235,0 -0.63775,0.10522 -0.839843,0.31445 -0.201073,0.20822 -0.300781,0.49948 -0.300781,0.87305 -10e-7,0.37255 0.09971,0.66186 0.300781,0.87109 0.202093,0.20822 0.482608,0.3125 0.839843,0.3125 0.163308,0 0.317023,-0.0216 0.460938,-0.0644 0.143915,-0.0439 0.275113,-0.10669 0.394531,-0.19141 v -0.98242 h -0.810547 v 0.25391 h 0.503907 v 0.61523 c -0.06838,0.0398 -0.144733,0.0685 -0.230469,0.0879 -0.08574,0.0184 -0.183757,0.0274 -0.292969,0.0274 -0.279664,0 -0.490006,-0.0782 -0.630859,-0.23438 -0.139832,-0.15616 -0.208985,-0.38707 -0.208985,-0.69531 0,-0.30926 0.06915,-0.54306 0.208985,-0.69922 0.140853,-0.15616 0.351195,-0.23437 0.630859,-0.23437 0.141874,0 0.277645,0.0252 0.40625,0.0742 0.128605,0.049 0.250919,0.12178 0.365235,0.21875 v -0.33008 c -0.113295,-0.0714 -0.238319,-0.12537 -0.373047,-0.16211 -0.133708,-0.0367 -0.27481,-0.0547 -0.423829,-0.0547 z m 1.679688,0.041 v 2.28711 h 0.310547 v -2.28711 z m 1.183594,0 v 2.28711 h 0.310547 v -0.9668 h 0.335937 c 0.122481,0 0.218636,0.0242 0.289063,0.0742 0.07145,0.05 0.145173,0.15158 0.220703,0.30468 l 0.292968,0.5879 h 0.332032 l -0.314453,-0.625 c -0.06328,-0.12861 -0.126172,-0.22925 -0.189453,-0.30274 -0.06226,-0.0735 -0.127016,-0.12208 -0.19336,-0.14453 0.127584,-0.0367 0.224672,-0.10234 0.291016,-0.19727 0.06736,-0.0949 0.101562,-0.21546 0.101562,-0.35937 0,-0.22047 -0.06475,-0.38493 -0.193359,-0.49414 -0.128605,-0.10921 -0.322692,-0.16406 -0.583985,-0.16406 z m 2.439453,0 v 2.28711 h 1.421873 v -0.26172 h -1.113279 v -2.02539 z m -2.128906,0.2539 h 0.388671 c 0.149019,0 0.260408,0.0351 0.335938,0.10352 0.07655,0.0674 0.115234,0.16707 0.115234,0.30078 0,0.13371 -0.03868,0.23528 -0.115234,0.30469 -0.07553,0.0684 -0.186919,0.10351 -0.335938,0.10351 h -0.388671 z"
         id="text9341"
         style="font-style:normal;font-weight:normal;font-size:3.13550639px;line-height:1.25;font-family:sans-serif;letter-spacing:0.25930539px;word-spacing:0px;fill:#ff00a5;fill-opacity:1;stroke:none;stroke-width:0.07838765"
         inkscape:original="M 93.851562 126.83789 C 93.494327 126.83789 93.213812 126.94311 93.011719 127.15234 C 92.810646 127.36056 92.710938 127.65182 92.710938 128.02539 C 92.710937 128.39794 92.810646 128.68725 93.011719 128.89648 C 93.213812 129.1047 93.494327 129.20898 93.851562 129.20898 C 94.01487 129.20898 94.168585 129.1874 94.3125 129.14453 C 94.456415 129.10064 94.587613 129.03784 94.707031 128.95312 L 94.707031 127.9707 L 93.896484 127.9707 L 93.896484 128.22461 L 94.400391 128.22461 L 94.400391 128.83984 C 94.332006 128.87965 94.255658 128.90834 94.169922 128.92773 C 94.084185 128.94611 93.986165 128.95508 93.876953 128.95508 C 93.597289 128.95508 93.386947 128.87687 93.246094 128.7207 C 93.106262 128.56454 93.037109 128.33363 93.037109 128.02539 C 93.037109 127.71613 93.106262 127.48233 93.246094 127.32617 C 93.386947 127.17001 93.597289 127.0918 93.876953 127.0918 C 94.018827 127.0918 94.154598 127.11702 94.283203 127.16602 C 94.411808 127.21501 94.534122 127.2878 94.648438 127.38477 L 94.648438 127.05469 C 94.535143 126.98324 94.410119 126.92932 94.275391 126.89258 C 94.141683 126.85583 94.000581 126.83789 93.851562 126.83789 z M 95.53125 126.87891 L 95.53125 129.16602 L 95.841797 129.16602 L 95.841797 126.87891 L 95.53125 126.87891 z M 96.714844 126.87891 L 96.714844 129.16602 L 97.025391 129.16602 L 97.025391 128.19922 L 97.361328 128.19922 C 97.483809 128.19922 97.579964 128.22342 97.650391 128.27344 C 97.721838 128.32345 97.795564 128.42502 97.871094 128.57812 L 98.164062 129.16602 L 98.496094 129.16602 L 98.181641 128.54102 C 98.118359 128.41241 98.055469 128.31177 97.992188 128.23828 C 97.929926 128.16479 97.865172 128.1162 97.798828 128.09375 C 97.926412 128.05701 98.0235 127.99141 98.089844 127.89648 C 98.157208 127.80156 98.191406 127.68102 98.191406 127.53711 C 98.191406 127.31664 98.126652 127.15218 97.998047 127.04297 C 97.869442 126.93376 97.675355 126.87891 97.414062 126.87891 L 96.714844 126.87891 z M 99.154297 126.87891 L 99.154297 129.16602 L 100.57617 129.16602 L 100.57617 128.9043 L 99.462891 128.9043 L 99.462891 126.87891 L 99.154297 126.87891 z M 97.025391 127.13281 L 97.414062 127.13281 C 97.563081 127.13281 97.67447 127.16794 97.75 127.23633 C 97.82655 127.30369 97.865234 127.4034 97.865234 127.53711 C 97.865234 127.67082 97.82655 127.77239 97.75 127.8418 C 97.67447 127.91018 97.563081 127.94531 97.414062 127.94531 L 97.025391 127.94531 L 97.025391 127.13281 z "
         inkscape:radius="0"
         sodipodi:type="inkscape:offset"
         transform="matrix(1.474093,0,0,1.474093,-47.71164,-60.827053)" />
    </g>
  </g>
</svg>
